<svg xmlns="http://www.w3.org/2000/svg" xmlns:xlink="http://www.w3.org/1999/xlink" width="21" height="23" viewBox="0 0 21 23"><defs><path id="a" d="M483 477.9v3.45c0 .64-.52 1.15-1.17 1.15v10.35c0 .64-.52 1.15-1.16 1.15h-16.34c-.64 0-1.16-.51-1.16-1.15V482.5c-.65 0-1.17-.51-1.17-1.15v-3.45c0-.64.52-1.15 1.17-1.15h4.11a6.95 6.95 0 0 1-.87-.38 2.85 2.85 0 0 1-1.07-3.93 2.93 2.93 0 0 1 3.98-1.05c.87.49 2.37 1.92 3.18 3.27a10.82 10.82 0 0 1 3.18-3.27 2.93 2.93 0 0 1 3.98 1.05 2.85 2.85 0 0 1-1.07 3.93c-.22.12-.52.25-.87.38h4.11c.65 0 1.17.51 1.17 1.15zm-9.89-1.74c.12.05.41.13.95.13 1.42 0 3.29-.54 3.95-.92a1.72 1.72 0 0 0 .64-2.36 1.76 1.76 0 0 0-2.39-.63c-1.25.71-3.14 3-3.15 3.78zM469 482.5h-4.67v10.35H469zm0-4.6h-5.83v3.45H469zm1.94-1.61c.54 0 .83-.08.95-.13-.01-.78-1.9-3.07-3.15-3.78a1.76 1.76 0 0 0-2.39.63c-.48.83-.2 1.88.64 2.36.66.38 2.53.92 3.95.92zm3.89 16.56V477.9h-4.66v14.95zm5.84 0V482.5H476v10.35zm1.16-14.95H476v3.45h5.83z"/></defs><g transform="translate(-462 -471)"><use fill="#1a93d1" xlink:href="#a"/></g></svg>