<svg xmlns="http://www.w3.org/2000/svg" xmlns:xlink="http://www.w3.org/1999/xlink" width="20" height="23" viewBox="0 0 20 23"><defs><path id="a" d="M483.84 705.79a.7.7 0 0 1 .06.73.69.69 0 0 1-.62.38h-16.92s.29 4.48 0 5.67c-.17.7-1.22-.69-1.39 0-.38 0 0-19.37 0-19.37a1.68 1.68 0 0 1 .7-3.2c.92 0 1.66.75 1.66 1.68 0 .67-.39 1.25-.97 1.52v.89h16.94a.7.7 0 0 1 .63.38c.11.24.09.52-.07.74l-3.93 5.3zm-17.76-14.11a.41.41 0 0 0-.41-.42.42.42 0 0 0-.42.42c0 .23.19.41.42.41a.4.4 0 0 0 .41-.41zm.28 13.83h15.54l-3.4-4.58a.72.72 0 0 1 0-.84l3.42-4.6h-15.56v2.32h3.47a.7.7 0 0 1 .69.7.7.7 0 0 1-.69.69h-3.47v2.59h2.22a.7.7 0 1 1 0 1.4h-2.22z"/></defs><g transform="translate(-464 -690)"><use fill="#1a93d1" xlink:href="#a"/></g></svg>