<svg xmlns="http://www.w3.org/2000/svg" xmlns:xlink="http://www.w3.org/1999/xlink" width="23" height="18" viewBox="0 0 23 18"><defs><path id="a" d="M645 696.13v13.73c0 1.18-.84 2.14-1.87 2.14h-19.26c-1.03 0-1.87-.96-1.87-2.14v-13.72c0-1.18.84-2.14 1.87-2.14h19.26c1.03 0 1.87.96 1.87 2.13zm-22-.08V698h21v-1.95c0-.6-.39-1.05-.84-1.05h-19.32c-.48 0-.84.49-.84 1.05zm21 4.95v-2h-21v2zm0 8.99V702h-21v8.03c0 .55.39.97.84.97h19.32c.48 0 .84-.45.84-1.01zm-3-4.49c0 .28-.21.5-.47.5h-5.06c-.26 0-.47-.22-.47-.5s.21-.5.47-.5h5.03c.26-.03.5.2.5.5zm1 3a.5.5 0 0 1-.49.5h-3.02a.5.5 0 0 1-.49-.5c0-.28.22-.5.49-.5h3.02c.24 0 .49.22.49.5z"/></defs><g transform="translate(-622 -694)"><use fill="#1f95d1" xlink:href="#a"/></g></svg>