<svg xmlns="http://www.w3.org/2000/svg" xmlns:xlink="http://www.w3.org/1999/xlink" width="35" height="35" viewBox="0 0 35 35"><defs><path id="a" d="M1407 1103.5a17.5 17.5 0 1 1 35.01.01 17.5 17.5 0 0 1-35.01-.01z"/><path id="b" d="M1419.2 1112.66h-3.97v-11.92h3.97zm-1.98-13.54h-.03c-1.33 0-2.19-.92-2.19-2.06 0-1.17.89-2.06 2.24-2.06 1.36 0 2.2.89 2.22 2.06 0 1.14-.86 2.06-2.24 2.06zm16.28 13.54h-3.96v-6.37c0-1.61-.58-2.7-2.01-2.7-1.1 0-1.75.74-2.04 1.45-.1.25-.13.61-.13.97v6.65h-3.96s.05-10.8 0-11.92h3.96v1.69a3.95 3.95 0 0 1 3.58-1.97c2.61 0 4.56 1.71 4.56 5.37z"/></defs><g transform="translate(-1407 -1086)"><use fill="#0077b5" xlink:href="#a"/></g><g transform="translate(-1407 -1086)"><use fill="#fff" xlink:href="#b"/></g></svg>