<svg xmlns="http://www.w3.org/2000/svg" xmlns:xlink="http://www.w3.org/1999/xlink" width="22" height="17" viewBox="0 0 22 17"><defs><path id="a" d="M484 559.74v11.53a2.71 2.71 0 0 1-2.69 2.73h-16.62a2.71 2.71 0 0 1-2.69-2.73v-11.54a2.71 2.71 0 0 1 2.69-2.73h16.62a2.71 2.71 0 0 1 2.69 2.74zm-1.23 11.53v-11.53c0-.82-.65-1.49-1.46-1.49h-16.62c-.81 0-1.46.67-1.46 1.49v11.53c0 .82.65 1.48 1.46 1.48h16.62c.81 0 1.47-.66 1.47-1.48z"/><path id="b" d="M475.38 564.86l5.41-4.79a.6.6 0 0 0 .04-.86.62.62 0 0 0-.87-.05l-7.45 6.61-1.46-1.28v-.02l-.11-.08-5.91-5.23a.6.6 0 0 0-.87.05.6.6 0 0 0 .05.86l5.46 4.83-5.44 5.03a.62.62 0 0 0-.03.87c.13.12.29.19.46.19.15 0 .3-.05.42-.16l5.52-5.11 1.5 1.32a.6.6 0 0 0 .82 0l1.54-1.37 5.5 5.16c.12.12.27.17.42.17a.6.6 0 0 0 .45-.19.6.6 0 0 0-.02-.86z"/></defs><g transform="translate(-462 -557)"><use fill="#1a93d1" xlink:href="#a"/></g><g transform="translate(-462 -557)"><use fill="#1a93d1" xlink:href="#b"/></g></svg>