<svg xmlns="http://www.w3.org/2000/svg" xmlns:xlink="http://www.w3.org/1999/xlink" width="91" height="48" viewBox="0 0 91 48"><defs><path id="a" d="M485 1107a11 11 0 0 1 11-11h55a11 11 0 0 1 11 11v12a11 11 0 0 1-11 11h-55a11 11 0 0 1-11-11z"/><path id="e" d="M469 1147v-68h109v68zm16-27a11 11 0 0 0 11 11h55a11 11 0 0 0 11-11v-12a11 11 0 0 0-11-11h-55a11 11 0 0 0-11 11z"/><path id="h" d="M545.32 1112.95c0 7.15-5.89 12.95-13.16 12.95a13.05 13.05 0 0 1-13.16-12.94v-.01c0-7.15 5.89-12.95 13.15-12.95 7.27 0 13.16 5.79 13.17 12.94v.01z"/><path id="i" d="M514.07 1100a13.06 13.06 0 0 0-13.07 12.95c0 7.14 5.89 12.94 13.16 12.94 3.41 0 6.51-1.28 8.85-3.37.48-.43.93-.89 1.34-1.39h-2.7c-.36-.43-.68-.87-.98-1.33h4.65c.28-.45.54-.91.77-1.39h-6.18c-.22-.44-.4-.9-.55-1.36h7.28a12.68 12.68 0 0 0 .37-6.88h-8.04c.1-.46.22-.91.37-1.36h7.29c-.16-.47-.35-.93-.57-1.38h-6.16c.23-.47.48-.92.76-1.36h4.65a12.8 12.8 0 0 0-1.03-1.39h-2.59c.4-.46.85-.9 1.32-1.31a13.22 13.22 0 0 0-8.85-3.37h-.09z"/><path id="j" d="M543.63 1119.05c.07.04.13.09.16.16.04.07.06.14.06.21 0 .07-.02.14-.06.21a.36.36 0 0 1-.15.15.42.42 0 0 1-.58-.15.42.42 0 0 1-.06-.21c0-.07.02-.14.06-.21a.41.41 0 0 1 .16-.16.46.46 0 0 1 .21-.05c.07 0 .14.02.2.05zm-.38.06a.4.4 0 0 0-.13.13.4.4 0 0 0-.05.18c0 .06.02.12.05.17.03.06.07.1.13.13s.11.05.18.05c.06 0 .12-.02.17-.05.06-.03.1-.07.13-.13a.34.34 0 0 0 .05-.17.4.4 0 0 0-.05-.18.4.4 0 0 0-.13-.13.35.35 0 0 0-.17-.04.4.4 0 0 0-.18.04zm-.01.09h.16l.11.01a.1.1 0 0 1 .06.05c.02.02.02.04.02.06 0 .04-.01.06-.03.09-.03.02-.06.04-.1.04l.04.02.07.09.05.09h-.09l-.04-.07a.42.42 0 0 0-.07-.11l-.06-.01h-.05v.19h-.07zm.16.2c.05 0 .07-.01.09-.02.02-.02.02-.03.02-.05l-.01-.04-.03-.02-.07-.01h-.09v.14z"/><path id="k" d="M518.17 1116.07l.17-1.17c-.09 0-.24.04-.36.04-.49 0-.55-.26-.51-.45l.48-2.35h.74l.15-1.33h-.69l.14-.81h-1.46c-.03.03-.83 4.53-.83 5.08 0 .81.46 1.17 1.12 1.17.51-.01.91-.15 1.05-.18z"/><path id="l" d="M521.45 1111c1.54 0 2.04 1.12 2.04 2.02 0 .37-.18 1.26-.18 1.26l-2.89-.01s-.27 1.11 1.24 1.11c.71 0 1.57-.35 1.57-.35l-.24 1.33s-.54.23-1.57.23c-1.11 0-2.42-.46-2.42-2.41 0-1.69 1.04-3.18 2.45-3.18zm-.9 2.18h1.55c0-.07.15-.95-.64-.95-.77 0-.91.86-.91.95z"/><path id="m" d="M530.83 1115.78l.25-1.5s-.69.34-1.16.34c-1 0-1.4-.75-1.4-1.55 0-1.63.86-2.52 1.81-2.52.72 0 1.29.39 1.29.39l.23-1.46s-.68-.48-1.41-.48c-2.19-.01-3.44 1.49-3.44 4.08 0 1.72.93 2.89 2.6 2.89.47 0 1.23-.19 1.23-.19z"/><path id="n" d="M512.53 1112.66l-.55 3.8h-1.24l.01-.51c-.02 0-.41.61-1.4.61-.51 0-1.35-.27-1.35-1.48 0-1.54 1.12-2.04 2.48-2.04l.61.03s.04-.09.04-.35c0-.41-.38-.47-.9-.47-.92 0-1.53.24-1.53.24l.21-1.19s.73-.3 1.69-.3c.5 0 1.93.05 1.93 1.66zm-1.93 1.4c-1.03 0-1.24.45-1.24.83 0 .19.12.52.55.52.85 0 .93-1.1.91-1.33-.04 0 .02-.02-.22-.02z"/><path id="o" d="M514.57 1116.53c.32 0 2.12.08 2.12-1.75 0-1.72-1.67-1.38-1.67-2.07 0-.34.27-.45.77-.45.2 0 .96.07.96.07l.18-1.22s-.5-.11-1.3-.11c-1.03 0-2.09.41-2.09 1.8 0 1.58 1.76 1.42 1.76 2.08 0 .45-.49.48-.87.48-.65 0-1.24-.22-1.24-.21l-.19 1.21c.03.01.4.17 1.57.17z"/><path id="p" d="M543.41 1110.01l-1.07 6.55h-1.36l.06-.49s-.46.58-1.3.58c-1.17 0-1.74-1.11-1.74-2.24 0-1.75.8-3.27 2.35-3.27.83 0 1.36.72 1.36.72l.25-1.86zm-2.81 2.46c-.62 0-1.11.7-1.11 1.77 0 .65.24 1.07.74 1.07.76 0 1.13-.97 1.13-1.7 0-.8-.26-1.14-.76-1.14z"/><path id="q" d="M503.39 1116.58l.86-4.95.12 4.95h.97l1.8-4.95-.8 4.95h1.43l1.11-6.56-2.28-.02-1.35 4.02-.04-4h-2.09l-1.12 6.56h1.39z"/><path id="r" d="M524.44 1116.82c.41-2.28.55-4.08 1.74-3.71.17-.88.58-1.65.76-2.02 0 0-.05-.09-.42-.09-.63 0-1.47 1.25-1.47 1.25l.13-.77h-1.31l-.87 5.34h1.44z"/><path id="s" d="M535.53 1112.66l-.55 3.8h-1.24l.01-.51c-.02 0-.41.61-1.4.61-.52 0-1.35-.27-1.35-1.48 0-1.54 1.12-2.04 2.48-2.04l.61.03s.04-.09.04-.35c0-.41-.38-.47-.9-.47-.92 0-1.53.24-1.53.24l.21-1.19s.73-.3 1.69-.3c.5 0 1.93.05 1.93 1.66zm-1.93 1.4c-1.03 0-1.24.45-1.24.83 0 .19.12.52.55.52.85 0 .93-1.1.91-1.33-.04 0 .02-.02-.22-.02z"/><path id="t" d="M536.44 1116.34c.22-1.68.64-4.03 1.74-3.71.17-.88.01-.88-.36-.88-.63 0-.77.02-.77.02l.13-.77h-1.31l-.87 5.34h1.44z"/><path id="u" d="M519.17 1116.07l.17-1.17c-.09 0-.23.04-.36.04-.49 0-.54-.26-.51-.45l.39-2.39h.75l.17-1.29h-.69l.14-.81h-1.4c-.03.03-.83 4.53-.83 5.08 0 .81.46 1.17 1.12 1.17.51-.01.91-.15 1.05-.18z"/><path id="v" d="M521.45 1110c1.54 0 2 1.11 2 2.01 0 .37-.18 1.26-.18 1.26h-2.85s-.27 1.11 1.24 1.11c.71 0 1.49-.34 1.49-.34l-.25 1.33s-.45.22-1.48.22c-1.11 0-2.42-.46-2.42-2.41 0-1.69 1.04-3.18 2.45-3.18zm-.9 2.18h1.55c0-.07.15-.95-.64-.95-.77 0-.91.86-.91.95z"/><path id="w" d="M530.75 1115.64l.25-1.5s-.69.34-1.16.34c-1 0-1.39-.75-1.39-1.55 0-1.63.85-2.53 1.8-2.53.72 0 1.29.4 1.29.4l.23-1.46s-.85-.34-1.58-.34c-1.62 0-3.19 1.38-3.19 3.97 0 1.72.85 2.86 2.52 2.86.47 0 1.23-.19 1.23-.19z"/><path id="x" d="M513.53 1111.66l-.55 3.8h-1.24l.05-.53c-.02 0-.45.63-1.44.63-.51 0-1.35-.27-1.35-1.48 0-1.54 1.27-2.04 2.48-2.04l.61.03s.04-.09.04-.35c0-.41-.38-.47-.9-.47-.92 0-1.53.24-1.53.24l.21-1.19s.73-.3 1.69-.3c.5 0 1.93.05 1.93 1.66zm-1.93 1.4c-1.03 0-1.24.45-1.24.83 0 .19.12.52.55.52.85 0 1.02-1.09.99-1.32-.04-.01-.06-.03-.3-.03z"/><path id="y" d="M514.57 1115.53c.32 0 2.12.08 2.12-1.75 0-1.72-1.67-1.38-1.67-2.07 0-.34.27-.45.77-.45.2 0 .96.07.96.07l.18-1.22s-.5-.11-1.3-.11c-1.03 0-2.09.41-2.09 1.8 0 1.58 1.76 1.42 1.76 2.08 0 .45-.49.48-.87.48-.65 0-1.24-.22-1.24-.21l-.19 1.21c.03.01.4.17 1.57.17z"/><path id="z" d="M543.41 1109l-1.07 6.55h-1.36l.06-.49s-.46.58-1.3.58c-1.17 0-1.74-1.11-1.74-2.24 0-1.75 1.07-3.27 2.35-3.27.83 0 1.36.72 1.36.72l.3-1.85zm-2.81 2.46c-.62 0-1.11.7-1.11 1.77 0 .65.24 1.07.74 1.07.76 0 1.13-.97 1.13-1.7 0-.8-.26-1.14-.76-1.14z"/><path id="A" d="M503.35 1115.56l.85-4.95.13 4.95h.96l1.8-4.95-.79 4.95h1.43l1.11-6.56h-2.22l-1.38 4.03-.08-4.03h-2.04l-1.12 6.56z"/><path id="B" d="M525.44 1116.41c.41-2.28.48-4.13 1.46-3.79.17-.89.33-1.23.52-1.6 0 0-.09-.02-.27-.02-.63 0-1.1.84-1.1.84l.13-.77h-1.31l-.87 5.34h1.44z"/><path id="C" d="M535.53 1111.66l-.55 3.8h-1.24l.05-.53c-.02 0-.45.63-1.44.63-.52 0-1.35-.27-1.35-1.48 0-1.54 1.27-2.04 2.48-2.04l.61.03s.04-.09.04-.35c0-.41-.38-.47-.9-.47-.92 0-1.53.24-1.53.24l.21-1.19s.73-.3 1.69-.3c.5 0 1.93.05 1.93 1.66zm-1.93 1.4c-1.03 0-1.24.45-1.24.83 0 .19.12.52.55.52.85 0 1.02-1.09.99-1.32-.04-.01-.06-.03-.3-.03z"/><path id="D" d="M537.44 1116.41c.41-2.28.48-4.13 1.45-3.79.18-.89.34-1.23.53-1.6 0 0-.09-.02-.27-.02-.63 0-1.1.84-1.1.84l.13-.77h-1.31l-.87 5.34h1.44z"/><path id="E" d="M543.63 1115.05c.07.04.13.09.16.16.04.07.06.14.06.21 0 .07-.02.14-.06.21a.36.36 0 0 1-.15.15.42.42 0 0 1-.58-.15.42.42 0 0 1-.06-.21c0-.07.02-.14.06-.21a.41.41 0 0 1 .16-.16.46.46 0 0 1 .21-.05c.07 0 .14.02.2.05zm-.38.06a.33.33 0 0 0-.13.13.4.4 0 0 0-.05.18c0 .06.02.12.05.17.03.06.07.1.13.13s.11.05.18.05c.06 0 .12-.02.17-.05.06-.03.1-.07.13-.13a.26.26 0 0 0 .05-.17.4.4 0 0 0-.05-.18.33.33 0 0 0-.3-.17.4.4 0 0 0-.18.04zm-.01.09h.16l.11.01c.03.01.05.02.06.05.02.02.02.04.02.06l-.03.09c-.03.02-.06.04-.1.04l.04.02.07.09.05.09h-.09l-.04-.07a.42.42 0 0 0-.07-.11l-.06-.01h-.05v.19h-.07zm.16.2c.05 0 .08-.01.09-.02.02-.01.02-.03.02-.05l-.01-.04c0-.01-.01-.02-.03-.02l-.07-.01h-.09v.14z"/><mask id="c" width="2" height="2" x="-1" y="-1"><path fill="#fff" d="M485 1096h77v34h-77z"/><use xlink:href="#a"/></mask><filter id="b" width="111" height="70" x="468" y="1086" filterUnits="userSpaceOnUse"><feOffset dy="2" in="SourceGraphic" result="FeOffset1050Out"/><feGaussianBlur in="FeOffset1050Out" result="FeGaussianBlur1051Out" stdDeviation="2.8 2.8"/></filter><linearGradient id="d" x1="523.5" x2="523.5" y1="1096" y2="1130" gradientUnits="userSpaceOnUse"><stop offset="0" stop-color="#363636"/><stop offset="1" stop-color="#202020"/></linearGradient><filter id="f" width="200%" height="200%" x="-50%" y="-50%"><feGaussianBlur in="SourceGraphic" result="FeGaussianBlur1059Out" stdDeviation="8 8"/></filter><mask id="g"><use fill="#fff" xlink:href="#a"/></mask></defs><g transform="translate(-478 -1091)"><g filter="url(#b)"><use fill="none" stroke-opacity=".69" stroke-width="0" mask="url(&quot;#c&quot;)" xlink:href="#a"/><use fill-opacity=".69" xlink:href="#a"/></g><use fill="url(#d)" xlink:href="#a"/><use fill="#ef2c2c" fill-opacity=".24" stroke="#ef2c2c" stroke-opacity=".24" stroke-width="0" filter="url(#f)" mask="url(&quot;#g&quot;)" xlink:href="#e"/></g><g transform="translate(-478 -1091)"><use fill="#f90" xlink:href="#h"/></g><g transform="translate(-478 -1091)"><use fill="#c00" xlink:href="#i"/></g><g transform="translate(-478 -1091)"><use fill="#fcb340" xlink:href="#j"/></g><g transform="translate(-478 -1091)"><use fill="#006" xlink:href="#k"/></g><g transform="translate(-478 -1091)"><use fill="#006" xlink:href="#l"/></g><g transform="translate(-478 -1091)"><use fill="#006" xlink:href="#m"/></g><g transform="translate(-478 -1091)"><use fill="#006" xlink:href="#n"/></g><g transform="translate(-478 -1091)"><use fill="#006" xlink:href="#o"/></g><g transform="translate(-478 -1091)"><use fill="#006" xlink:href="#p"/></g><g transform="translate(-478 -1091)"><use fill="#006" xlink:href="#q"/></g><g transform="translate(-478 -1091)"><use fill="#006" xlink:href="#r"/></g><g transform="translate(-478 -1091)"><use fill="#006" xlink:href="#s"/></g><g transform="translate(-478 -1091)"><use fill="#006" xlink:href="#t"/></g><g transform="translate(-478 -1091)"><use fill="#fff" xlink:href="#u"/></g><g transform="translate(-478 -1091)"><use fill="#fff" xlink:href="#v"/></g><g transform="translate(-478 -1091)"><use fill="#fff" xlink:href="#w"/></g><g transform="translate(-478 -1091)"><use fill="#fff" xlink:href="#x"/></g><g transform="translate(-478 -1091)"><use fill="#fff" xlink:href="#y"/></g><g transform="translate(-478 -1091)"><use fill="#fff" xlink:href="#z"/></g><g transform="translate(-478 -1091)"><use fill="#fff" xlink:href="#A"/></g><g transform="translate(-478 -1091)"><use fill="#fff" xlink:href="#B"/></g><g transform="translate(-478 -1091)"><use fill="#fff" xlink:href="#C"/></g><g transform="translate(-478 -1091)"><use fill="#fff" xlink:href="#D"/></g><g transform="translate(-478 -1091)"><use fill="#fff" xlink:href="#E"/></g><g transform="translate(-478 -1091)"><use xlink:href="#a"/></g><g transform="translate(-478 -1091)"><use fill="#f90" xlink:href="#h"/></g><g transform="translate(-478 -1091)"><use fill="#c00" xlink:href="#i"/></g><g transform="translate(-478 -1091)"><use fill="#fcb340" xlink:href="#j"/></g><g transform="translate(-478 -1091)"><use fill="#006" xlink:href="#k"/></g><g transform="translate(-478 -1091)"><use fill="#006" xlink:href="#l"/></g><g transform="translate(-478 -1091)"><use fill="#006" xlink:href="#m"/></g><g transform="translate(-478 -1091)"><use fill="#006" xlink:href="#n"/></g><g transform="translate(-478 -1091)"><use fill="#006" xlink:href="#o"/></g><g transform="translate(-478 -1091)"><use fill="#006" xlink:href="#p"/></g><g transform="translate(-478 -1091)"><use fill="#006" xlink:href="#q"/></g><g transform="translate(-478 -1091)"><use fill="#006" xlink:href="#r"/></g><g transform="translate(-478 -1091)"><use fill="#006" xlink:href="#s"/></g><g transform="translate(-478 -1091)"><use fill="#006" xlink:href="#t"/></g><g transform="translate(-478 -1091)"><use fill="#fff" xlink:href="#u"/></g><g transform="translate(-478 -1091)"><use fill="#fff" xlink:href="#v"/></g><g transform="translate(-478 -1091)"><use fill="#fff" xlink:href="#w"/></g><g transform="translate(-478 -1091)"><use fill="#fff" xlink:href="#x"/></g><g transform="translate(-478 -1091)"><use fill="#fff" xlink:href="#y"/></g><g transform="translate(-478 -1091)"><use fill="#fff" xlink:href="#z"/></g><g transform="translate(-478 -1091)"><use fill="#fff" xlink:href="#A"/></g><g transform="translate(-478 -1091)"><use fill="#fff" xlink:href="#B"/></g><g transform="translate(-478 -1091)"><use fill="#fff" xlink:href="#C"/></g><g transform="translate(-478 -1091)"><use fill="#fff" xlink:href="#D"/></g><g transform="translate(-478 -1091)"><use fill="#fff" xlink:href="#E"/></g></svg>