<svg xmlns="http://www.w3.org/2000/svg" xmlns:xlink="http://www.w3.org/1999/xlink" width="77" height="34" viewBox="0 0 77 34"><defs><path id="a" d="M573 1160a11 11 0 0 1 11-11h55a11 11 0 0 1 11 11v12a11 11 0 0 1-11 11h-55a11 11 0 0 1-11-11z"/><path id="b" d="M637.99 1160.76c.68.49 1.01 1.18 1.01 2.13 0 .81-.2 1.49-.59 2.01-.39.53-.95.87-1.67 1.04l-.33.07 1.43 3.99h-3.11l-1.38-4.88-.85 4.88h-29.36l1.36-7.73h-1.75l-1.36 7.73h-11.15l-2.06-6.3-1.07 6.3H584l1.75-10h3.26l2.13 6.13 1.06-6.13h18.74l-.4 2.27h-2.99l-.3 1.75h2.88l-.34 1.96h-2.89l-.3 1.75h4.8l1.36-7.73h3.14l-1.3 7.33h2.15l1.29-7.33h3.14l-1.29 7.34h2.2l1.29-7.34h6.01l-.4 2.27h-2.96l-.3 1.74h2.87l-.34 1.97h-2.88l-.3 1.75h4.77l1.35-7.73h3.64c1.39 0 2.45.25 3.16.76zm-39.31 6.97l.96-5.46h-4.76l-.29 1.73h2.96l-.33 1.98h-2.99l-.31 1.75zm36.75-3.37c.23-.17.51-.51.51-1.14 0-.52-.24-.79-.44-.93a2 2 0 0 0-1.15-.27h-.45l-.48 2.69h.62c.62 0 1.08-.12 1.39-.35z"/></defs><g transform="translate(-573 -1149)"><use xlink:href="#a"/></g><g transform="translate(-573 -1149)"><use fill="#83ba3b" xlink:href="#b"/></g></svg>