<svg xmlns="http://www.w3.org/2000/svg" xmlns:xlink="http://www.w3.org/1999/xlink" width="16" height="21" viewBox="0 0 16 21"><defs><path id="a" d="M481 614.92v7.45c0 3.1-2.55 5.63-5.69 5.63h-4.62a5.67 5.67 0 0 1-5.69-5.63v-7.45c0-.42.34-.76.77-.76h1.51v-3.1a4.08 4.08 0 0 1 4.1-4.06h3.24c2.26 0 4.1 1.82 4.1 4.06v3.1h1.51c.43 0 .77.34.77.76zm-12.18-.76h8.36v-3.1c0-1.4-1.15-2.54-2.56-2.54h-3.24a2.55 2.55 0 0 0-2.56 2.54zm10.64 8.21v-6.68h-12.92v6.68a4.14 4.14 0 0 0 4.15 4.11h4.62a4.14 4.14 0 0 0 4.15-4.11z"/><path id="b" d="M472.16 624.26c0 .41.38.74.84.74.46 0 .84-.33.84-.74v-2.09a.7.7 0 0 0 .16-.43c0-.41-.38-.74-.84-.74h-.32c-.46 0-.84.33-.84.74 0 .16.06.3.16.43z"/></defs><g transform="translate(-465 -607)"><use fill="#1a8fcb" xlink:href="#a"/></g><g transform="translate(-465 -607)"><use fill="#1a8fcb" xlink:href="#b"/></g></svg>