<svg xmlns="http://www.w3.org/2000/svg" xmlns:xlink="http://www.w3.org/1999/xlink" width="77" height="34" viewBox="0 0 77 34"><defs><path id="a" d="M485 1160a11 11 0 0 1 11-11h55a11 11 0 0 1 11 11v12a11 11 0 0 1-11 11h-55a11 11 0 0 1-11-11z"/><path id="b" d="M525.31 1166.11c-.05.05-.12.04-.16-.02l-.43-.65c-.4-.61-.91-.98-1.84-.98-1.77 0-2.88-1.44-2.88-3.73s1.11-3.73 2.88-3.73c1.76 0 2.86 1.44 2.86 3.73 0 1.17-.36 2.35-.96 2.76-.11.07-.11.1 0 .14.52.21.76.47 1.04.88l.41.62c.04.06.04.13-.02.18zm-1.04-5.38c0-1.42-.52-2.25-1.39-2.25-.86 0-1.41.83-1.41 2.25 0 1.4.55 2.26 1.41 2.26.87 0 1.39-.86 1.39-2.26z"/><path id="c" d="M528.39 1165.34c0 .09-.04.14-.11.14h-1.17c-.07 0-.11-.05-.11-.14v-7.2c0-.09.04-.14.11-.14h1.17c.07 0 .11.05.11.14v7.2"/><path id="d" d="M536.26 1163.21c-.16.73-.29 1.43-.4 2.14-.01.09-.06.13-.13.13h-1.6c-.07 0-.12-.04-.12-.13-.1-.61-.2-1.17-.32-1.75l-.27-1.37-.18-1.09c-.02-.14-.12-.14-.14 0l-.17 1.09-.27 1.37c-.12.58-.22 1.14-.32 1.75-.01.09-.05.13-.12.13h-1.61c-.07 0-.11-.04-.12-.13-.11-.71-.25-1.41-.4-2.14l-1.08-5.06c-.03-.09.02-.15.09-.15h1.21c.07 0 .12.04.14.12l.59 2.84c.15.72.27 1.64.33 2.33 0 .13.14.14.15 0 .08-.68.22-1.61.39-2.33l.64-2.84c.02-.08.06-.12.12-.12h1c.06 0 .11.04.12.12l.65 2.84c.17.72.31 1.65.39 2.33.01.14.14.13.15 0 .04-.69.17-1.61.32-2.33l.6-2.84c.02-.08.06-.12.13-.12h1.21c.08 0 .12.06.1.15l-1.08 5.06"/><path id="e" d="M539.39 1165.34c0 .09-.04.14-.11.14h-1.17c-.07 0-.11-.05-.11-.14v-7.2c0-.09.04-.14.11-.14h1.17c.07 0 .11.05.11.14v7.2"/><path id="f" d="M526.25 1174.62h-1.37l-.77-2.94a7.2 7.2 0 0 1-.14-.65 7.14 7.14 0 0 1-.12-.66 15.82 15.82 0 0 1-.26 1.32l-.77 2.93h-1.37l-1.45-5.6h1.19l.72 3.06c.13.56.22 1.05.28 1.47a10.99 10.99 0 0 1 .26-1.39l.83-3.14h1.14l.83 3.14.14.64.12.75a15.32 15.32 0 0 1 .28-1.47l.72-3.06h1.19zm5.33 0l-.41-1.33h-2.08l-.41 1.33h-1.3l2.01-5.62h1.47l2.02 5.62zm-.7-2.33l-.65-2.04-.1-.38c-.08.33-.33 1.13-.73 2.42zm2.71 2.33v-5.6h1.21v4.62h2.31v.98zm4.5 0v-5.6h1.21v4.62h2.31v.98zm7.78 0h-3.28v-5.6h3.28v.98h-2.07v1.23h1.92v.97h-1.92v1.44h2.07zm3.38 0h-1.21v-4.61h-1.54v-.99h4.29v.99h-1.54z"/><path id="g" d="M510.07 1170.26c-.23.29-.13.8.24 1.12a.9.9 0 0 0 .6.22c.23 0 .42-.09.54-.24.21-.28.09-.68-.31-1.02-.2-.16-.43-.25-.64-.25a.56.56 0 0 0-.43.17zm2.04-1.53c-.1.18-.03.53.17.84.2.32.37.47.51.47.04 0 .09-.02.12-.05.07-.09.1-.27.07-.5-.03-.23-.18-.71-.5-.86-.18-.06-.31-.02-.37.1zm4.3 6.98c-1.79-2.21-3.32-2.81-4.74-3.19l-.59-.15-.08-.02c-1.19-.29-2.31-.57-3.45-1.73l-.05-.04a8.84 8.84 0 0 1-.94-1.18l-.25-.4c-.25-.39-.23.58-.13 1.75v.06l-.23.01c-1.6 0-2.94-.56-4.1-1.71a5.64 5.64 0 0 1-1.71-4.18c0-1.67.54-3.04 1.67-4.2a5.48 5.48 0 0 1 4.14-1.71c1.63 0 2.99.56 4.15 1.71a5.63 5.63 0 0 1 1.73 4.23c0 .22-.01.43-.03.64h-.06a7.85 7.85 0 0 0-1.91.01c-.15.14.25.12.43.17a4.82 4.82 0 0 1 1.37.57l.05.03a4.07 4.07 0 0 1 1.85 3.06c.01.06.04.13.1.03.55-.92.85-1.64 1.01-2.15h.01l.07-.29.07-.31a9.03 9.03 0 0 0-1.02-6.3 8.61 8.61 0 0 0-3.31-3.25 9.23 9.23 0 0 0-9.02.01 8.93 8.93 0 0 0-4.44 7.77 8.8 8.8 0 0 0 4.48 7.71 9.14 9.14 0 0 0 5.54 1.12l.25-.02.57-.05c.95-.08 1.85-.17 2.76-.13 1.72.07 3.45.59 5.51 2.41.21.18.48-.05.3-.28z"/></defs><g transform="translate(-485 -1149)"><use xlink:href="#a"/></g><g transform="translate(-485 -1149)"><use fill="#0175ae" xlink:href="#b"/></g><g transform="translate(-485 -1149)"><use fill="#0175ae" xlink:href="#c"/></g><g transform="translate(-485 -1149)"><use fill="#0175ae" xlink:href="#d"/></g><g transform="translate(-485 -1149)"><use fill="#0175ae" xlink:href="#e"/></g><g transform="translate(-485 -1149)"><use fill="#0b6eae" xlink:href="#f"/></g><g transform="translate(-485 -1149)"><use fill="#ff8c00" xlink:href="#g"/></g></svg>