<svg xmlns="http://www.w3.org/2000/svg" xmlns:xlink="http://www.w3.org/1999/xlink" width="77" height="34" viewBox="0 0 77 34"><defs><path id="a" d="M397 1160a11 11 0 0 1 11-11h55a11 11 0 0 1 11 11v12a11 11 0 0 1-11 11h-55a11 11 0 0 1-11-11z"/><path id="b" d="M460.84 1173.91h-4.24v-15.23l4.24-.75zm-12.21 0h-4.23v-11.69h4.23zm-8.24 0h-4.27v-6.57c0-3.44 1.99-5.16 5.9-5.29 0 0 .7-.02 1.12.06v3.42c-2.48.08-2.75.96-2.75 3.02zm-16.63 0v-15.13l4.36-.85v8.35c1.64-1.95 2.32-3.84 2.42-4.07h4.99c-.14.45-1.03 3.15-3.07 5.68 0 0 2.27 3.91 2.79 6.03h-5.23s-.63-2.82-1.9-4.68v4.67zm-1.07-4.98c0 2.57-2.09 5.15-6.75 5.15-2.16 0-4.01-.2-5.64-.63v-3.73c1.09.44 2.89.91 4.75.91 1.69 0 2.7-.56 2.7-1.49 0-1.14-1.23-1.21-1.7-1.23-5.46-.37-6.05-3.55-6.05-4.9 0-2.34 1.69-5.08 6.46-5.08 2.77 0 4.26.43 5.54.87l.07.02v3.58l-.05.03c-.51-.21-1.12-.42-1.12-.42a14.56 14.56 0 0 0-3.79-.67c-.66 0-2.45 0-2.45 1.33 0 1.09 1.24 1.17 1.77 1.21 3.93.26 6.26 2.15 6.26 5.05zm21.74-9.88c0-1.13.93-2.05 2.09-2.05 1.15 0 2.08.92 2.08 2.05 0 1.14-.93 2.05-2.08 2.05a2.07 2.07 0 0 1-2.09-2.05zm6-.37l4.23-.75v15.99h-4.23z"/></defs><g transform="translate(-397 -1149)"><use xlink:href="#a"/></g><g transform="translate(-397 -1149)"><use fill="#b32c7b" xlink:href="#b"/></g></svg>