<svg xmlns="http://www.w3.org/2000/svg" xmlns:xlink="http://www.w3.org/1999/xlink" width="35" height="35" viewBox="0 0 35 35"><defs><path id="a" d="M1407 1152.5a17.5 17.5 0 1 1 35.01.01 17.5 17.5 0 0 1-35.01-.01z"/><path id="b" d="M1424.23 1149.72l.03.61-.61-.07a10.01 10.01 0 0 1-5.83-2.87l-.8-.8-.21.59a3.57 3.57 0 0 0 .76 3.66c.49.52.38.59-.47.28-.29-.1-.55-.17-.57-.14-.09.09.2 1.22.44 1.66.32.62.96 1.22 1.67 1.58l.6.29-.71.01c-.68 0-.71.01-.63.27.24.8 1.21 1.66 2.29 2.03l.76.26-.67.39c-.97.57-2.13.89-3.28.92-.55.01-1 .06-1 .1 0 .12 1.49.81 2.36 1.08 2.61.81 5.71.46 8.03-.91a10.73 10.73 0 0 0 4.08-4.8c.41-1 .83-2.83.83-3.7 0-.57.04-.65.72-1.33.41-.39.79-.82.86-.95.12-.23.11-.23-.51-.02-1.04.37-1.19.32-.68-.24.38-.39.84-1.11.84-1.32 0-.04-.19.03-.4.14-.22.12-.71.31-1.07.42l-.66.21-.6-.41c-.34-.22-.8-.47-1.04-.54a4.11 4.11 0 0 0-2.15.05 3.52 3.52 0 0 0-2.38 3.55z"/></defs><g transform="translate(-1407 -1135)"><use fill="#55acee" xlink:href="#a"/></g><g transform="translate(-1407 -1135)"><use fill="#fff" xlink:href="#b"/></g></svg>