<svg xmlns="http://www.w3.org/2000/svg" xmlns:xlink="http://www.w3.org/1999/xlink" width="19" height="22" viewBox="0 0 19 22"><defs><path id="a" d="M468.54 375.59c-1.84-2-1.53-5.43-1.5-5.76.12-2.47 1.35-3.65 2.35-4.2a5.52 5.52 0 0 1 2.58-.63h.09c.96.02 1.83.24 2.58.65.99.55 2.2 1.73 2.32 4.18.03.33.34 3.76-1.5 5.76a4.5 4.5 0 0 1-3.39 1.41H471.92a4.5 4.5 0 0 1-3.38-1.41zm.97-.82c.6.65 1.41.98 2.46.98h.05c1.06 0 1.87-.33 2.47-.98 1.53-1.65 1.19-4.79 1.19-4.82l-.01-.04c-.15-3.13-2.35-3.63-3.64-3.66h-.06c-1.05 0-3.49.35-3.65 3.66v.04c-.01.03-.33 3.18 1.19 4.82z"/><path id="b" d="M481 382.56v-.01l-.01-.12c-.02-.88-.08-2.95-2.09-3.61l-.05-.02a13.35 13.35 0 0 1-3.84-1.69.64.64 0 0 0-.87.15c-.2.27-.13.65.16.84.07.06 1.92 1.29 4.22 1.87 1.08.37 1.2 1.48 1.23 2.5v.11c.01.4-.02 1.03-.09 1.38-.75.42-3.69 1.84-8.16 1.84-4.45 0-7.4-1.43-8.16-1.84-.07-.36-.1-.98-.09-1.38v-.11c.03-1.02.15-2.14 1.23-2.51a14.6 14.6 0 0 0 4.22-1.86.58.58 0 0 0 .16-.84.63.63 0 0 0-.87-.15c-.02.01-1.75 1.18-3.84 1.69l-.05.01c-2.01.67-2.07 2.74-2.09 3.62l-.01.11v.02c0 .23-.01 1.42.24 2.02a.5.5 0 0 0 .24.28c.14.09 3.46 2.14 9.03 2.14 5.56 0 8.89-2.05 9.03-2.14a.6.6 0 0 0 .24-.28c.23-.59.22-1.79.22-2.02z"/></defs><g transform="translate(-462 -365)"><use fill="#1491d1" xlink:href="#a"/></g><g transform="translate(-462 -365)"><use fill="#1491d1" xlink:href="#b"/></g></svg>