<svg xmlns="http://www.w3.org/2000/svg" xmlns:xlink="http://www.w3.org/1999/xlink" width="77" height="34" viewBox="0 0 77 34"><defs><path id="a" d="M397 1107a11 11 0 0 1 11-11h55a11 11 0 0 1 11 11v12a11 11 0 0 1-11 11h-55a11 11 0 0 1-11-11z"/><path id="b" d="M433.99 1105l-2.67 16.41h-4.25l2.66-16.41zm12.15 11.01c-.03 3.3-2.94 5.43-7.41 5.43a13.4 13.4 0 0 1-4.74-.85l.59-3.57.56.26a8.8 8.8 0 0 0 4 .84c1.22 0 2.54-.49 2.55-1.55 0-.69-.56-1.2-2.2-1.98-1.61-.76-3.77-2.03-3.73-4.31.01-3.09 2.97-5.26 7.18-5.26 1.64 0 2.98.36 3.82.68l-.58 3.43-.39-.17a7.5 7.5 0 0 0-3.17-.61c-1.68 0-2.43.69-2.45 1.37 0 .74.91 1.24 2.4 1.96 2.45 1.14 3.59 2.52 3.57 4.33zm14.96 5.41h-3.94l-.64-3.27h-4.99l-1.23 3.26h-4.47l6.32-15.04c.44-1.03 1.21-1.32 2.23-1.32h3.29zm-5.32-6.55l-1.3-5.32s-1.63 5.32-1.71 5.32h3.01zm-32.27-9.87h4.5l-6.69 16.39h-4.5l-3.82-14.1c2.7 1.37 5.12 4.12 5.89 6.66l.45 2.2z"/><path id="c" d="M417.44 1107.11a2.77 2.77 0 0 0-2.77-2.11h-6.6l-.07.3c5.15 1.26 9.48 5.13 10.88 8.77z"/></defs><g transform="translate(-397 -1096)"><use xlink:href="#a"/></g><g transform="translate(-397 -1096)"><use fill="#2394bc" xlink:href="#b"/></g><g transform="translate(-397 -1096)"><use fill="#efc75e" xlink:href="#c"/></g></svg>