<svg xmlns="http://www.w3.org/2000/svg" xmlns:xlink="http://www.w3.org/1999/xlink" width="35" height="35" viewBox="0 0 35 35"><defs><path id="a" d="M1358 1103.5a17.5 17.5 0 1 1 35.01.01 17.5 17.5 0 0 1-35.01-.01z"/><path id="b" d="M1376.25 1108.41s.34-.04.51-.22c.16-.17.15-.48.15-.48s-.02-1.47.67-1.69c.69-.21 1.57 1.42 2.5 2.05.71.48 1.24.37 1.24.37l2.49-.03s1.31-.08.69-1.09c-.05-.08-.36-.74-1.85-2.1-1.57-1.42-1.36-1.19.53-3.66 1.14-1.5 1.6-2.41 1.46-2.81-.14-.37-.98-.27-.98-.27l-2.81.02s-.21-.03-.36.06-.25.29-.25.29-.44 1.17-1.04 2.15c-1.25 2.09-1.75 2.2-1.95 2.07-.48-.31-.36-1.22-.36-1.86 0-2.02.32-2.86-.6-3.08-.31-.07-.53-.12-1.31-.13a6.14 6.14 0 0 0-2.33.24c-.32.15-.57.49-.42.51.19.03.61.11.83.41.29.38.28 1.25.28 1.25s.16 2.37-.39 2.67c-.38.2-.9-.21-2.01-2.1-.57-.97-1-2.04-1-2.04s-.08-.2-.23-.31a1.16 1.16 0 0 0-.43-.17l-2.67.02s-.4.01-.55.18c-.13.15-.01.47-.01.47s2.09 4.79 4.45 7.21c2.17 2.21 4.63 2.07 4.63 2.07z"/></defs><g transform="translate(-1358 -1086)"><use fill="#4c6c91" xlink:href="#a"/></g><g transform="translate(-1358 -1086)"><use fill="#fff" xlink:href="#b"/></g></svg>