<svg xmlns="http://www.w3.org/2000/svg" xmlns:xlink="http://www.w3.org/1999/xlink" width="77" height="34" viewBox="0 0 77 34"><defs><path id="a" d="M573 1107a11 11 0 0 1 11-11h55a11 11 0 0 1 11 11v12a11 11 0 0 1-11 11h-55a11 11 0 0 1-11-11z"/><path id="b" d="M591.84 1113.37v.36h-3.29c0 1.18.5 1.7 1.53 1.7a3.2 3.2 0 0 0 1.61-.51v.74a3.6 3.6 0 0 1-1.79.46c-1.69 0-2.39-1.02-2.39-2.57 0-1.49.78-2.57 2.29-2.57 1.26 0 2.04.79 2.04 2.39zm-.96-.29c-.05-1.03-.56-1.44-1.11-1.44-.61 0-1.09.46-1.2 1.44zm6.21.31c0 1.83-.91 2.73-2.37 2.73a4.9 4.9 0 0 1-1.97-.48v-6.84l1.05-.25v2.79c.31-.15.82-.36 1.36-.36 1.25 0 1.93.84 1.93 2.41zm-1.06 0c0-1.24-.46-1.64-1.14-1.64-.4 0-.69.1-1.1.32v3.2c.33.14.68.16.93.16.75 0 1.31-.45 1.31-2.04zm20-.94v3.55h-1.04v-3.32c0-.78-.4-.92-.91-.92-.41 0-.92.18-1.23.36v3.88h-1.05v-4.3a5.3 5.3 0 0 1 2.57-.72c1.21 0 1.66.46 1.66 1.47zm-12.14-3.4h1.25v6.95h-1.09v-5.04h-.09l-2.06 5.04h-.64l-2.06-4.92h-.09v4.92h-.91v-6.95h1.22l2.26 5.48h.05zm6.95 4.5c0 1.67-.91 2.57-2.3 2.57-1.38 0-2.3-.9-2.3-2.57 0-1.72.97-2.57 2.3-2.57 1.33 0 2.3.85 2.3 2.57zm-1.06 0c0-1.32-.55-1.88-1.24-1.88-.66 0-1.24.56-1.24 1.88 0 1.34.53 1.88 1.24 1.88.72 0 1.24-.54 1.24-1.88zm31.17 3.78l1.78 1.98a9.03 9.03 0 0 1-5.52 1.87 8.73 8.73 0 0 1-8.84-8.59 8.73 8.73 0 0 1 8.84-8.59 8.93 8.93 0 0 1 4.42 1.15l-.81.71-1.22-1.23-2.06 1.79-1.22-1.3-3.85 3.37 2.46 2.64-.97.82 2.43 2.65-.96.82 3.47 3.75zm4.22-5.33l.94 1.02-1.05.92-.94-1.02zm-19.95-.85h1.08l-1.83 4.9c-.5 1.35-1.11 2.06-2.27 2.06v-.81c.68 0 1.11-.52 1.35-1.25l-1.94-4.9h1.11l1.29 3.61h.06zm-3.93 2.22v.36h-3.28c0 1.18.49 1.7 1.53 1.7.55 0 1.05-.19 1.6-.51v.74c-.45.26-1.05.46-1.78.46-1.69 0-2.39-1.02-2.39-2.57 0-1.49.78-2.57 2.29-2.57 1.26 0 2.04.79 2.03 2.39zm-.95-.29c-.05-1.03-.57-1.44-1.11-1.44-.61 0-1.09.46-1.2 1.44zm23.38 2.52l1.41 1.53-1.57 1.38-1.42-1.53zm-4.19-9.41l1.42 1.53-1.58 1.38-1.42-1.53zm-3.33.53l1.89 2.04-2.1 1.84-1.89-2.04zm4.63 5.46l-1.42-1.53 1.57-1.38 1.42 1.53zm1.94-2.29l1.05-.92.95 1.02-1.05.92zm-56.73-.84h1.18l-1.63 6.95h-1.09l-1.38-4.89h-.07l-1.33 4.89h-1.09l-1.63-6.95h1.13l1.13 5.18h.07l1.31-5.18h.9l1.4 5.18h.07zm56.13 6.37l-1.42-1.53 1.58-1.38 1.42 1.53zm-.74-8.57l1.05-.92.95 1.03-1.05.91zm-3.94 7.24l-1.89-2.05 2.1-1.84 1.89 2.05zm1.5 3.53l-1.89-2.04 2.1-1.84 1.89 2.04z"/></defs><g transform="translate(-573 -1096)"><use xlink:href="#a"/></g><g transform="translate(-573 -1096)"><use fill="#036cb5" xlink:href="#b"/></g></svg>