<svg xmlns="http://www.w3.org/2000/svg" xmlns:xlink="http://www.w3.org/1999/xlink" width="35" height="35" viewBox="0 0 35 35"><defs><path id="a" d="M1358 1152.5c0-9.66 7.72-17.5 17.24-17.5s17.24 7.84 17.24 17.5-7.72 17.5-17.24 17.5-17.24-7.84-17.24-17.5z"/><path id="b" d="M1384.18 1148.89s-.18-1.31-.73-1.89c-.7-.76-1.48-.76-1.84-.81-2.57-.19-6.43-.19-6.43-.19s-3.86 0-6.43.19c-.36.05-1.14.05-1.84.81-.55.58-.73 1.89-.73 1.89s-.18 1.55-.18 3.09v1.45c0 1.54.18 3.09.18 3.09s.18 1.31.73 1.89c.7.76 1.62.74 2.03.81 1.47.15 6.24.2 6.24.2s3.86-.01 6.43-.2c.36-.05 1.14-.05 1.84-.81.55-.58.73-1.89.73-1.89s.18-1.55.18-3.09v-1.45c0-1.54-.18-3.09-.18-3.09z"/><path id="c" d="M1373 1155.36V1150l4.96 2.69z"/></defs><g transform="translate(-1358 -1135)"><use fill="#ce1312" xlink:href="#a"/></g><g transform="translate(-1358 -1135)"><use fill="#fff" xlink:href="#b"/></g><g transform="translate(-1358 -1135)"><use fill="#ce1312" xlink:href="#c"/></g></svg>